<?xml version="1.0" encoding="UTF-8"?>
<svg id="Layer_1" xmlns="http://www.w3.org/2000/svg" version="1.1" viewBox="0 0 384 384">
  <!-- Generator: Adobe Illustrator 29.5.1, SVG Export Plug-In . SVG Version: 2.1.0 Build 141)  -->
  <path d="M284.25,384H57c-3.69-1.09-7.53-1.53-11.25-2.63-20.03-5.92-36.93-22.49-42.95-42.55-1.17-3.9-1.71-7.92-2.8-11.82V99.75c3.85-30.02,28.32-54.84,58.85-57.03,30.27-2.17,63.17,1.63,93.72.09,25.26,5.34,23.58,40.63-2.91,42.71-28.68,2.26-60.23-1.8-89.21.04-9.43,1.81-16.77,9.35-17.72,19.03v216.81c.62,10.74,9.22,19.14,19.88,19.88h216.81c9.68-.95,17.22-8.29,19.03-17.72,1.84-28.98-2.22-60.54.04-89.21,2.12-26.92,38.15-28.06,42.78-2.23-1.65,30.34,2.18,62.96.02,93.03-2.13,29.59-27.33,55.96-57.03,58.85Z"/>
  <path d="M366.75,0c8.99,2.74,14.51,8.26,17.25,17.25v135.75c-3.55,15.24-21.07,23.12-34.12,13.5-3.28-2.42-8.63-9.85-8.63-13.87v-79.12l-177.39,176.98c-21.81,17.03-47.11-9.24-30.34-30.34L310.5,42.75h-79.12c-4.03,0-11.46-5.35-13.87-8.63-9.62-13.05-1.74-30.57,13.5-34.12h135.75Z"/>
</svg>